HIERARCHY
ROOT Hips
{
  OFFSET -129.891 103.596 56.2144
  CHANNELS 6 Xposition Yposition Zposition Zrotation Xrotation Yrotation
  JOINT Chest
  {
    OFFSET 7.22889e-014 11.6235 5.42167e-014
    CHANNELS 3 Zrotation Xrotation Yrotation
    JOINT Chest2
    {
      OFFSET -9.03611e-015 16.7104 -1.08433e-013
      CHANNELS 3 Zrotation Xrotation Yrotation
      JOINT Neck
      {
        OFFSET 0 10.3009 -1.08433e-013
        CHANNELS 3 Zrotation Xrotation Yrotation
        JOINT Head
        {
          OFFSET -3.16264e-014 13.2005 3.43372e-013
          CHANNELS 3 Zrotation Xrotation Yrotation
          End Site
          {
            OFFSET 0 10.5299 0
          }
        }
      }
      JOINT RightCollar
      {
        OFFSET -2.69605 10.657 4.47645
        CHANNELS 3 Zrotation Xrotation Yrotation
        JOINT RightShoulder
        {
          OFFSET -15.4132 1.6265e-013 -1.08433e-013
          CHANNELS 3 Zrotation Xrotation Yrotation
          JOINT RightElbow
          {
            OFFSET -3.16264e-013 -28.1813 -1.12951e-012
            CHANNELS 3 Zrotation Xrotation Yrotation
            JOINT RightWrist
            {
              OFFSET 3.09035e-012 -24.9766 2.31324e-012
              CHANNELS 3 Zrotation Xrotation Yrotation
              End Site
              {
                OFFSET 0 -18.1602 0
              }
            }
          }
        }
      }
      JOINT LeftCollar
      {
        OFFSET 2.69605 10.657 4.47645
        CHANNELS 3 Zrotation Xrotation Yrotation
        JOINT LeftShoulder
        {
          OFFSET 14.7774 1.80722e-014 1.80722e-014
          CHANNELS 3 Zrotation Xrotation Yrotation
          JOINT LeftElbow
          {
            OFFSET 6.506e-013 -30.7247 1.98794e-013
            CHANNELS 3 Zrotation Xrotation Yrotation
            JOINT LeftWrist
            {
              OFFSET 1.55421e-012 -24.9766 6.32528e-012
              CHANNELS 3 Zrotation Xrotation Yrotation
              End Site
              {
                OFFSET 0 -18.7451 0
              }
            }
          }
        }
      }
    }
  }
  JOINT LeftHip
  {
    OFFSET 8.724 -1.80722e-014 5.42167e-014
    CHANNELS 3 Zrotation Xrotation Yrotation
    JOINT LeftKnee
    {
      OFFSET 1.80722e-014 -46.9773 0
      CHANNELS 3 Zrotation Xrotation Yrotation
      JOINT LeftAnkle
      {
        OFFSET 4.33733e-013 -45.6547 -1.35542e-012
        CHANNELS 3 Zrotation Xrotation Yrotation
        End Site
        {
          OFFSET 0 -10.2547 12.3862
        }
      }
    }
  }
  JOINT RightHip
  {
    OFFSET -8.724 0 0
    CHANNELS 3 Zrotation Xrotation Yrotation
    JOINT RightKnee
    {
      OFFSET -9.03611e-015 -46.9773 -3.61444e-014
      CHANNELS 3 Zrotation Xrotation Yrotation
      JOINT RightAnkle
      {
        OFFSET -1.89758e-013 -45.6547 -5.42167e-014
        CHANNELS 3 Zrotation Xrotation Yrotation
        End Site
        {
          OFFSET 0 -10.2547 12.3862
        }
      }
    }
  }
}
MOTION
Frames:	19
Frame Time:	0.0166667
-129.891 103.596 56.2144 4.17354 -1.31657 -98.5629 1.52419 -1.7309 1.62024 3.01999 -3.41961 3.28169 -16.1296 6.78942 4.35717 13.0568 -1.95341 -4.10862 -10.0169 0.434775 -3.40436 -18.4727 17.65 9.50443 11.7839 -43.5475 46.1036 -6.2744 -5.65242 -0.310056 -11.6545 -1.09521 7.47211 37.8775 -2.70188 -20.2218 -27.869 -32.4613 -23.9877 -0.898747 -5.33246 -0.0418538 2.19225 -15.683 -6.06157 -0.02427 19.3318 20.7445 -9.99676 -5.82147 -0.509582 -5.51301 -13.3184 4.04133 -0.938245 16.8092 -17.6715 4.12036 -6.19094 0.22292 
-129.944 103.553 56.39 3.7822 -1.29204 -98.6559 1.45937 -1.58556 1.48445 2.88053 -3.13431 3.00464 -15.3536 6.97648 4.22481 12.2524 -2.15559 -3.79656 -8.63927 0.390142 -3.28764 -19.8349 18.1251 9.63135 12.1365 -43.8744 45.2928 -6.34334 -5.50529 -0.305179 -11.6243 -1.13264 7.74099 37.7723 -2.41261 -20.1883 -27.8044 -32.5707 -24.1066 -0.667527 -5.26278 -0.0307673 2.05823 -15.3151 -5.82812 0.0256878 19.4627 20.5597 -9.84292 -6.09449 -0.525051 -5.60773 -13.1906 4.26519 -0.932508 17.31 -17.7861 4.54276 -6.33647 0.251736 
-129.978 103.501 56.5657 3.35314 -1.25676 -98.7403 1.40116 -1.44292 1.33671 2.75529 -2.85432 2.7042 -14.4958 7.24576 4.09521 11.3656 -2.3389 -3.44422 -7.15499 0.34478 -3.14615 -21.3759 18.5773 9.82087 12.5472 -44.172 44.5007 -6.4473 -5.41019 -0.304943 -11.5906 -1.17448 8.04243 37.649 -2.14135 -20.1509 -27.7382 -32.6695 -24.235 -0.459787 -5.19328 -0.0208519 1.92825 -14.9814 -5.6135 0.0583031 19.7048 20.3936 -9.70314 -6.37414 -0.541584 -5.70091 -13.0771 4.48084 -0.914558 17.9069 -17.9058 4.97242 -6.50364 0.28269 
-129.984 103.43 56.7416 2.84433 -1.19871 -98.8113 1.35825 -1.30714 1.16385 2.66133 -2.58791 2.35462 -13.4672 7.70421 3.98332 10.3043 -2.48677 -3.00269 -5.43623 0.296151 -2.94603 -23.3111 19.0049 10.147 13.1018 -44.4237 43.7602 -6.62662 -5.42835 -0.314102 -11.5679 -1.22762 8.41468 37.5033 -1.89722 -20.1036 -27.6727 -32.7418 -24.3828 -0.305523 -5.12273 -0.0136772 1.81018 -14.7187 -5.44218 0.0572912 20.1911 20.2758 -9.59758 -6.67949 -0.561355 -5.78915 -12.9905 4.67792 -0.868418 18.7142 -18.0353 5.42152 -6.7319 0.319186 
-129.924 103.329 56.9178 2.23069 -1.11392 -98.8484 1.32875 -1.17662 0.957442 2.59484 -2.33229 1.93874 -12.2083 8.35999 3.85583 9.00633 -2.57273 -2.45755 -3.44027 0.248974 -2.68975 -25.707 19.3198 10.6346 13.8208 -44.5905 43.0935 -6.90029 -5.58421 -0.336934 -11.4996 -1.28904 8.87318 37.2774 -1.72529 -20.0457 -27.5923 -32.7935 -24.5565 -0.208531 -5.05559 -0.00920601 1.71337 -14.5557 -5.3103 0.00204663 20.9692 20.1973 -9.52157 -6.97985 -0.582019 -5.871 -12.9503 4.85581 -0.796005 19.7738 -18.182 5.88234 -6.98943 0.359549 
-129.778 103.191 57.0941 1.47465 -0.994441 -98.8373 1.31774 -1.05347 0.704155 2.56621 -2.09202 1.42992 -10.637 9.28384 3.70686 7.38472 -2.57452 -1.77244 -1.06693 0.204892 -2.35886 -28.7203 19.4821 11.3428 14.7618 -44.6393 42.5344 -7.30591 -5.93586 -0.379041 -11.3774 -1.36374 9.44704 36.9538 -1.64849 -19.973 -27.4914 -32.8202 -24.7549 -0.190414 -4.99431 -0.00828395 1.64742 -14.5267 -5.22946 -0.130246 22.1439 20.1752 -9.4836 -7.27425 -0.604236 -5.9427 -12.9694 5.00963 -0.687192 21.1736 -18.365 6.36097 -7.28388 0.405682 
-129.49 102.997 57.2705 0.570767 -0.846523 -98.7514 1.31349 -0.930672 0.405571 2.55151 -1.85315 0.830867 -8.72318 10.3953 3.46877 5.41383 -2.46226 -0.964585 1.63896 0.170609 -1.98228 -32.2764 19.3439 12.2354 15.9082 -44.5382 42.0883 -7.82959 -6.44358 -0.441414 -11.0703 -1.43418 10.1335 36.4072 -1.74285 -19.8885 -27.3431 -32.8366 -25.0117 -0.227727 -4.94378 -0.00983086 1.61908 -14.6512 -5.17799 -0.354669 23.6762 20.1797 -9.46409 -7.4926 -0.621102 -6.00689 -13.0807 5.14198 -0.552253 22.8881 -18.5723 6.82797 -7.53633 0.450234 
-129.018 102.735 57.4474 -0.506581 -0.671479 -98.5648 1.31201 -0.805737 0.0528459 2.54299 -1.61132 0.123576 -6.38707 11.6845 3.08544 3.01049 -2.2052 -0.0247923 4.7225 0.154231 -1.56819 -36.4212 18.7942 13.3242 17.2825 -44.2466 41.7684 -8.4964 -7.12885 -0.531361 -10.502 -1.49723 10.9503 35.5593 -2.05486 -19.7925 -27.1279 -32.8587 -25.3357 -0.321757 -4.90708 -0.013768 1.64183 -14.9517 -5.14486 -0.695576 25.5938 20.2019 -9.4517 -7.58807 -0.628156 -6.06146 -13.3009 5.25424 -0.3963 24.9444 -18.8208 7.27239 -7.69399 0.489793 
-128.295 102.379 57.6239 -1.73679 -0.48978 -98.2609 1.2957 -0.667119 -0.336061 2.50503 -1.34239 -0.656392 -3.66743 13.0106 2.50923 0.242948 -1.7838 1.00341 8.01271 0.153257 -1.16032 -40.8735 17.6969 14.5051 18.8207 -43.7573 41.5858 -9.22912 -7.86619 -0.635903 -9.50292 -1.51509 11.8653 34.254 -2.6973 -19.6925 -26.8192 -32.8756 -25.8018 -0.419944 -4.89219 -0.0179394 1.70316 -15.4534 -5.111 -1.14199 27.8047 20.2074 -9.42957 -7.49001 -0.618612 -6.11634 -13.6908 5.34571 -0.223799 27.2743 -19.057 7.64345 -7.68625 0.514215 
-127.259 101.905 57.8014 -3.12524 -0.311862 -97.8145 1.25027 -0.505159 -0.758222 2.40924 -1.02709 -1.50379 -0.528674 14.2531 1.66175 -2.9136 -1.15449 2.10273 11.4303 0.171134 -0.802604 -45.4004 15.5274 15.6886 20.495 -43.0345 41.5508 -10.0012 -8.59092 -0.754691 -7.89601 -1.46187 12.8941 32.303 -3.7568 -19.6021 -26.3873 -32.8979 -26.4807 -0.494192 -4.90059 -0.0212714 1.80729 -16.1768 -5.0514 -1.6924 30.2655 20.1578 -9.37915 -7.12055 -0.584608 -6.17668 -14.2948 5.41515 -0.0600819 29.8621 -19.2472 7.90464 -7.43135 0.513127 
-125.852 101.283 57.9743 -4.61987 -0.171946 -97.2319 1.16277 -0.311785 -1.17739 2.23084 -0.647106 -2.34573 2.89312 15.3347 0.571312 -6.2767 -0.36129 3.20459 14.7451 0.198129 -0.50257 -49.8356 13.2759 16.6808 22.2014 -42.1262 41.6723 -10.6806 -9.14228 -0.856395 -5.64051 -1.3018 13.9111 29.7281 -5.3597 -19.5235 -25.8225 -32.867 -27.3937 -0.472431 -4.95489 -0.0204406 1.92121 -17.1598 -4.97326 -2.30523 32.866 20.0281 -9.29661 -6.45442 -0.525339 -6.25472 -15.1789 5.46723 0.10118 32.5913 -19.3236 8.00298 -6.90997 0.483957 
-124.003 100.479 58.1418 -6.19425 -0.0749649 -96.5044 1.01405 -0.0731598 -1.57088 1.93146 -0.172898 -3.13718 6.52285 16.1009 -0.779648 -9.745 0.60663 4.2722 17.7647 0.226023 -0.292918 -53.3772 9.44303 17.2625 23.8611 -41.0302 41.9505 -11.171 -9.35189 -0.914329 -2.55582 -0.975338 14.8867 26.3387 -7.65759 -19.517 -25.0952 -32.7469 -28.6377 -0.294341 -5.07444 -0.0135667 2.02369 -18.4386 -4.86164 -2.93557 35.5265 19.7604 -9.1734 -5.42929 -0.4356 -6.36216 -16.4194 5.49861 0.221416 35.4057 -19.1792 7.87871 -6.06494 0.416409 
-121.688 99.4777 58.29 -7.76984 -0.0698519 -95.6602 0.807705 0.20301 -1.89517 1.5212 0.380486 -3.78979 10.1499 16.653 -2.31665 -13.0743 1.62673 5.19594 20.2973 0.253704 -0.142099 -56.8483 5.58251 17.6003 25.3494 -39.862 42.405 -11.3304 -9.17811 -0.912402 1.10759 -0.53167 15.5502 22.5788 -10.6629 -19.4786 -24.2157 -32.4695 -30.0426 0.103601 -5.27055 0.00476842 2.08835 -20.0386 -4.75899 -3.54289 38.1116 19.3489 -9.01129 -4.07836 -0.321513 -6.50617 -18.0303 5.53644 0.302779 38.1216 -18.8016 7.52147 -4.9279 0.324118 
-118.854 98.2473 58.4111 -9.28229 -0.155354 -94.7118 0.531411 0.52255 -2.10842 0.973986 1.02749 -4.21898 13.6016 16.9677 -3.98673 -16.0415 2.62021 5.89336 22.1386 0.278034 -0.0291849 -58.7218 0.557782 17.0889 26.5574 -38.6916 43.0392 -10.9965 -8.4407 -0.8112 5.38226 0.051428 15.3246 18.8684 -14.8355 -19.2445 -23.145 -31.9742 -31.5247 0.814166 -5.5862 0.0399725 2.07101 -22.0037 -4.69093 -4.07902 40.5049 18.7516 -8.80726 -2.38919 -0.184007 -6.69185 -20.0742 5.60048 0.338256 40.5958 -18.0932 6.87534 -3.48465 0.209795 
-115.52 96.8006 58.4854 -10.6471 -0.301108 -93.6874 0.207639 0.858934 -2.18293 0.335351 1.71106 -4.36865 16.6735 17.2701 -5.73528 -18.4063 3.47457 6.24255 23.134 0.296867 0.0449926 -60.6457 -4.44729 16.4117 27.3591 -37.6377 43.8745 -10.149 -7.3867 -0.656834 9.65945 0.616084 15.0561 15.0927 -19.0141 -19.2909 -21.9581 -31.2438 -32.9091 1.8109 -5.94577 0.0940535 1.98463 -24.3134 -4.70285 -4.52324 42.5497 17.9648 -8.57011 -0.436479 -0.0327047 -6.92245 -22.4816 5.72052 0.300698 42.6217 -17.1156 6.01833 -1.81564 0.0954527 
-111.671 95.1321 58.4966 -11.6363 -0.553034 -92.5954 -0.158366 1.19681 -2.07057 -0.387316 2.3995 -4.14047 19.176 17.7345 -7.52918 -19.8846 4.04959 6.09007 23.0814 0.31052 0.108181 -60.8702 -9.29098 14.7462 27.6093 -36.8302 44.9639 -8.61377 -6.07795 -0.467772 13.5018 0.967691 12.9638 13.6445 -24.0853 -18.3822 -20.6605 -30.2281 -33.939 3.15636 -6.32137 0.176498 1.7909 -26.9863 -4.86421 -4.89015 44.0807 16.9997 -8.29252 1.74418 0.125437 -7.18938 -25.2438 5.94839 0.257003 43.9737 -15.9036 4.9519 0.047777 0.00218967 
-107.362 93.2643 58.427 -12.6206 -0.823706 -91.5078 -0.5338 1.50877 -1.79052 -1.13322 3.03358 -3.57422 21.0034 18.4908 -9.2854 -20.3555 4.35463 5.44017 21.9186 0.308466 0.0955732 -61.2436 -14.126 13.0317 27.3006 -36.2664 46.2098 -6.68665 -4.89009 -0.285844 17.3548 1.1781 10.8523 12.2225 -29.1761 -17.579 -19.4489 -29.0124 -34.821 4.67625 -6.61275 0.270302 1.53892 -29.9454 -5.1587 -5.13103 44.9813 15.8123 -8.01356 4.04774 0.283644 -7.49401 -28.2371 6.25737 0.145247 44.5276 -14.5616 3.83649 1.97241 -0.0660671 
-102.614 91.2169 58.2561 -12.9227 -1.12543 -90.3935 -0.892836 1.7619 -1.31752 -1.8515 3.54089 -2.61896 21.9947 19.7731 -10.9771 -19.562 4.30806 4.17553 19.4171 0.275331 -0.0463938 -60.2693 -17.7241 10.8974 26.3094 -36.0115 47.5918 -4.43994 -4.22097 -0.166414 19.8636 0.964724 7.57727 14.8301 -33.4445 -15.2615 -18.5029 -27.6264 -35.6011 6.27069 -6.70096 0.367348 1.23774 -33.1585 -5.63633 -5.29296 45.076 14.4259 -7.74449 6.39831 0.431773 -7.84117 -31.3723 6.66273 0.00261333 44.079 -13.2169 2.78159 3.85349 -0.0898496 
-97.5136 88.9925 57.9757 -13.2189 -1.43295 -89.2806 -1.20425 1.9568 -0.736495 -2.48311 3.92479 -1.44742 22.2063 21.4437 -12.4454 -17.7123 4.02816 2.51458 15.8728 0.225971 -0.323702 -58.6201 -20.2242 8.86485 24.8972 -35.9842 48.9848 -2.33467 -4.06628 -0.0828922 21.3498 0.589169 4.09957 17.7938 -37.612 -12.5766 -17.8859 -26.1597 -36.5008 7.7743 -6.61417 0.449916 0.939868 -36.5055 -6.19321 -5.29132 44.3553 12.8134 -7.54937 8.67278 0.573287 -8.22353 -34.5376 7.08562 -0.175226 42.6597 -12.0512 1.93074 5.57451 -0.0940072 
